<svg width="24" height="24" viewBox="0 0 24 24" fill="none" xmlns="http://www.w3.org/2000/svg">
<g clip-path="url(#clip0_22_594)">
<path fill-rule="evenodd" clip-rule="evenodd" d="M16.719 22.281C16.7887 22.3508 16.8715 22.4063 16.9626 22.4441C17.0537 22.4819 17.1514 22.5013 17.25 22.5013C17.3487 22.5013 17.4464 22.4819 17.5375 22.4441C17.6286 22.4063 17.7114 22.3508 17.781 22.281L23.781 16.281C23.9219 16.1402 24.001 15.9492 24.001 15.75C24.001 15.5508 23.9219 15.3598 23.781 15.219C23.6402 15.0782 23.4492 14.9991 23.25 14.9991C23.0509 14.9991 22.8599 15.0782 22.719 15.219L18 19.9395V5.25C18 4.25544 17.6049 3.30161 16.9017 2.59835C16.1984 1.89509 15.2446 1.5 14.25 1.5H2.25003C2.05112 1.5 1.86035 1.57902 1.7197 1.71967C1.57905 1.86032 1.50003 2.05109 1.50003 2.25C1.50003 2.44891 1.57905 2.63968 1.7197 2.78033C1.86035 2.92098 2.05112 3 2.25003 3H14.25C14.8468 3 15.4191 3.23705 15.841 3.65901C16.263 4.08097 16.5 4.65326 16.5 5.25V19.9395L11.781 15.219C11.6402 15.0782 11.4492 14.9991 11.25 14.9991C11.0509 14.9991 10.8599 15.0782 10.719 15.219C10.5782 15.3598 10.4991 15.5508 10.4991 15.75C10.4991 15.9492 10.5782 16.1402 10.719 16.281L16.719 22.281Z" fill="#0A4A3D"/>
</g>
<defs>
<clipPath id="clip0_22_594">
<rect width="24" height="24" fill="white" transform="matrix(-1 0 0 1 24 0)"/>
</clipPath>
</defs>
</svg>
