<svg width="24" height="16" viewBox="0 0 24 16" fill="none" xmlns="http://www.w3.org/2000/svg">
<path fill-rule="evenodd" clip-rule="evenodd" d="M16.5001 1.54839C14.9088 1.54839 13.3826 2.20093 12.2574 3.36244C11.1322 4.52395 10.5 6.09931 10.5 7.74193C10.5 9.38456 11.1322 10.9599 12.2574 12.1214C13.3826 13.2829 14.9088 13.9355 16.5001 13.9355C18.0914 13.9355 19.6175 13.2829 20.7427 12.1214C21.8679 10.9599 22.5001 9.38456 22.5001 7.74193C22.5001 6.09931 21.8679 4.52395 20.7427 3.36244C19.6175 2.20093 18.0914 1.54839 16.5001 1.54839ZM9.03754 6.96774C9.22995 4.99151 10.1508 3.1672 11.6096 1.87213C13.0685 0.577054 14.9537 -0.0897181 16.8754 0.00971603C18.7972 0.10915 20.6084 0.967183 21.9344 2.40636C23.2605 3.84553 24 5.75575 24 7.74193C24 9.72812 23.2605 11.6383 21.9344 13.0775C20.6084 14.5167 18.7972 15.3747 16.8754 15.4742C14.9537 15.5736 13.0685 14.9068 11.6096 13.6117C10.1508 12.3167 9.22995 10.4924 9.03754 8.51613H6.00002C6.00002 9.13211 5.76297 9.72287 5.34101 10.1584C4.91905 10.594 4.34675 10.8387 3.75001 10.8387H2.25001C1.65327 10.8387 1.08097 10.594 0.659012 10.1584C0.237054 9.72287 0 9.13211 0 8.51613L0 6.96774C0 6.35176 0.237054 5.761 0.659012 5.32543C1.08097 4.88986 1.65327 4.64516 2.25001 4.64516H3.75001C4.34675 4.64516 4.91905 4.88986 5.34101 5.32543C5.76297 5.761 6.00002 6.35176 6.00002 6.96774H9.03754ZM2.25001 6.19355C2.0511 6.19355 1.86033 6.27512 1.71968 6.42031C1.57902 6.56549 1.50001 6.76241 1.50001 6.96774V8.51613C1.50001 8.72146 1.57902 8.91838 1.71968 9.06356C1.86033 9.20875 2.0511 9.29032 2.25001 9.29032H3.75001C3.94893 9.29032 4.13969 9.20875 4.28035 9.06356C4.421 8.91838 4.50002 8.72146 4.50002 8.51613V6.96774C4.50002 6.76241 4.421 6.56549 4.28035 6.42031C4.13969 6.27512 3.94893 6.19355 3.75001 6.19355H2.25001ZM12 7.74193C12 7.53661 12.0791 7.33969 12.2197 7.1945C12.3604 7.04931 12.5511 6.96774 12.7501 6.96774H20.2501C20.449 6.96774 20.6398 7.04931 20.7804 7.1945C20.9211 7.33969 21.0001 7.53661 21.0001 7.74193C21.0001 7.94726 20.9211 8.14418 20.7804 8.28937C20.6398 8.43456 20.449 8.51613 20.2501 8.51613H12.7501C12.5511 8.51613 12.3604 8.43456 12.2197 8.28937C12.0791 8.14418 12 7.94726 12 7.74193Z" fill="#0A4A3D"/>
</svg>
