<svg width="33" height="32" viewBox="0 0 33 32" fill="none" xmlns="http://www.w3.org/2000/svg">
<path d="M16.1109 3.77602e-07C15.7564 3.77602e-07 15.4054 0.0113336 15.0576 0.0340001L15.1865 2.02999C15.8021 1.98981 16.4197 1.98981 17.0352 2.02999L17.1641 0.0340001C16.8135 0.0112639 16.4622 -7.54324e-05 16.1109 3.77602e-07ZM12.9693 0.303998C12.2712 0.442664 11.5918 0.622663 10.9313 0.843994L11.5777 2.73998C12.155 2.54398 12.7485 2.38598 13.358 2.26598L12.9693 0.305998V0.303998ZM21.2905 0.845994C20.6244 0.622061 19.9443 0.441676 19.2545 0.305998L18.8638 2.26598C19.472 2.38598 20.0654 2.54398 20.644 2.73998L21.2905 0.845994ZM25.0624 2.69598C24.4779 2.30747 23.8684 1.95739 23.2378 1.64799L22.3457 3.43998C22.9002 3.71331 23.4325 4.0193 23.9427 4.35797L25.0624 2.69598ZM8.98192 1.64799C8.34958 1.95865 7.74207 2.30798 7.1594 2.69598L8.27909 4.35597C8.79071 4.01635 9.32417 3.71036 9.87606 3.43998L8.98192 1.64799ZM5.48792 3.96997C4.95895 4.4313 4.46221 4.92463 3.99768 5.44996L5.51209 6.76995C5.91888 6.30996 6.35387 5.87796 6.81705 5.47396L5.48792 3.96997ZM28.2241 5.44996C27.7604 4.92486 27.2626 4.43047 26.7338 3.96997L25.4047 5.47396C25.8692 5.87796 26.3042 6.30996 26.7097 6.76995L28.2241 5.44996ZM30.5621 8.91994C30.2505 8.2944 29.898 7.68978 29.5069 7.10995L27.8354 8.22194C28.1764 8.7286 28.4839 9.25727 28.7577 9.80793L30.5621 8.91994ZM2.71487 7.10995C2.32285 7.68728 1.9711 8.29127 1.65963 8.92194L3.46402 9.80793C3.73924 9.25727 4.04736 8.7286 4.38837 8.22194L2.71487 7.10995ZM0.85208 10.8559C0.626596 11.5174 0.444963 12.1929 0.308346 12.8779L2.2819 13.2659C2.40273 12.6619 2.56182 12.0726 2.75918 11.4979L0.85208 10.8559ZM31.9154 12.8799C31.7789 12.1942 31.5973 11.5181 31.3717 10.8559L29.4626 11.4979C29.6599 12.0712 29.819 12.6606 29.9399 13.2659L31.9154 12.8799ZM0.0344644 14.9539C-0.0114881 15.6505 -0.0114881 16.3493 0.0344644 17.0459L2.04427 16.9179C2.00382 16.3065 2.00382 15.6932 2.04427 15.0819L0.0344644 14.9539ZM32.2215 15.9999C32.2216 15.6509 32.2102 15.3021 32.1873 14.9539L30.1775 15.0819C30.2179 15.6932 30.2179 16.3065 30.1775 16.9179L32.1873 17.0459C32.2102 16.6977 32.2216 16.3488 32.2215 15.9999ZM0.306332 19.1199C0.445957 19.8132 0.627202 20.4879 0.850066 21.1438L2.75918 20.5019C2.56142 19.9235 2.40199 19.3329 2.2819 18.7339L0.308346 19.1219L0.306332 19.1199ZM31.3697 21.1438C31.5952 20.4865 31.7765 19.8125 31.9134 19.1219L29.9399 18.7339C29.819 19.3379 29.6599 19.9272 29.4626 20.5019L31.3697 21.1438ZM1.65963 23.0798C1.97125 23.7054 2.32375 24.31 2.71487 24.8898L4.38635 23.7778C4.04438 23.2697 3.73628 22.7399 3.46402 22.1918L1.65963 23.0798ZM29.5069 24.8898C29.8989 24.3112 30.2507 23.7072 30.5621 23.0778L28.7577 22.1918C28.4825 22.7425 28.1744 23.2712 27.8334 23.7778L29.5069 24.8898ZM3.99768 26.5498C4.46221 27.0751 4.95895 27.5685 5.48792 28.0298L6.81705 26.5258C6.35402 26.1226 5.9181 25.6897 5.51209 25.2298L3.99768 26.5498ZM26.7338 28.0298C27.2628 27.5685 27.7596 27.0751 28.2241 26.5498L26.7097 25.2298C26.3042 25.6911 25.8692 26.1231 25.4047 26.5258L26.7338 28.0298ZM23.2398 30.3518C23.8722 30.0411 24.4797 29.6918 25.0624 29.3038L23.9427 27.6438C23.4311 27.9834 22.8976 28.2894 22.3457 28.5598L23.2398 30.3518ZM7.1594 29.3038C7.74207 29.6931 8.35025 30.0425 8.98393 30.3518L9.87606 28.5598C9.32412 28.2888 8.79066 27.9821 8.27909 27.6418L7.1594 29.3038ZM10.9313 31.1538C11.5932 31.3778 12.2718 31.5578 12.9673 31.6938L13.358 29.7338C12.7548 29.6145 12.1601 29.4562 11.5777 29.2598L10.9313 31.1538ZM19.2525 31.6958C19.9429 31.5602 20.6237 31.3798 21.2905 31.1558L20.644 29.2598C20.0617 29.4562 19.467 29.6145 18.8638 29.7338L19.2545 31.6938L19.2525 31.6958ZM15.0576 31.9658C15.7591 32.0114 16.4627 32.0114 17.1641 31.9658L17.0352 29.9698C16.4197 30.01 15.8021 30.01 15.1865 29.9698L15.0576 31.9658ZM17.1178 8.99994C17.1178 8.73472 17.0117 8.48037 16.8229 8.29283C16.634 8.1053 16.3779 7.99994 16.1109 7.99994C15.8438 7.99994 15.5877 8.1053 15.3989 8.29283C15.2101 8.48037 15.104 8.73472 15.104 8.99994V14.9999H9.06247C8.79542 14.9999 8.53931 15.1052 8.35048 15.2928C8.16164 15.4803 8.05556 15.7347 8.05556 15.9999C8.05556 16.2651 8.16164 16.5195 8.35048 16.707C8.53931 16.8945 8.79542 16.9999 9.06247 16.9999H15.104V22.9998C15.104 23.2651 15.2101 23.5194 15.3989 23.7069C15.5877 23.8945 15.8438 23.9998 16.1109 23.9998C16.3779 23.9998 16.634 23.8945 16.8229 23.7069C17.0117 23.5194 17.1178 23.2651 17.1178 22.9998V16.9999H23.1593C23.4263 16.9999 23.6825 16.8945 23.8713 16.707C24.0601 16.5195 24.1662 16.2651 24.1662 15.9999C24.1662 15.7347 24.0601 15.4803 23.8713 15.2928C23.6825 15.1052 23.4263 14.9999 23.1593 14.9999H17.1178V8.99994Z" fill="#0A4A3D"/>
</svg>
